<?xml version="1.0" encoding="utf-8"?>
<!-- Generator: Adobe Illustrator 24.3.0, SVG Export Plug-In . SVG Version: 6.00 Build 0)  -->
<svg version="1.1" id="Слой_1" xmlns="http://www.w3.org/2000/svg" xmlns:xlink="http://www.w3.org/1999/xlink" x="0px" y="0px"
	 viewBox="0 0 958.1 1080" style="enable-background:new 0 0 958.1 1080;" xml:space="preserve">
<style type="text/css">
	.st0{fill:url(#SVGID_1_);stroke:#000000;stroke-width:4.9746;stroke-miterlimit:10;}
	.st1{fill:url(#SVGID_2_);stroke:#000000;stroke-width:4.9746;stroke-miterlimit:10;}
	.st2{fill:url(#SVGID_3_);stroke:#000000;stroke-width:4.9746;stroke-miterlimit:10;}
	.st3{fill:url(#SVGID_4_);stroke:#000000;stroke-width:4.9746;stroke-miterlimit:10;}
	.st4{fill:url(#SVGID_5_);stroke:#000000;stroke-width:4.9746;stroke-miterlimit:10;}
	.st5{fill:url(#SVGID_6_);stroke:#000000;stroke-width:4.9746;stroke-miterlimit:10;}
	.st6{fill:url(#SVGID_7_);stroke:#000000;stroke-width:4.9746;stroke-miterlimit:10;}
	.st7{fill:url(#SVGID_8_);stroke:#000000;stroke-width:4.9746;stroke-miterlimit:10;}
	.st8{fill:url(#SVGID_9_);stroke:#000000;stroke-width:4.9746;stroke-miterlimit:10;}
</style>
<image style="display:none;overflow:visible;" width="1280" height="1280" xlink:href="D133FCB6.jpg"  transform="matrix(0.8442 0 0 0.8442 -60.4035 -0.2078)">
</image>
<g>
	
		<linearGradient id="SVGID_1_" gradientUnits="userSpaceOnUse" x1="299.9067" y1="113.3329" x2="656.7682" y2="966.2711" gradientTransform="matrix(-1 0 0 -1 948.5637 1068.5673)">
		<stop  offset="0" style="stop-color:#FFA71A"/>
		<stop  offset="0.8531" style="stop-color:#FFA71A"/>
		<stop  offset="1" style="stop-color:#FFA71A"/>
	</linearGradient>
	<path class="st0" d="M59.1,790.9c0,0,0,0.1-0.1,0.1h0.2c0.4,0,0.8,0,1.2,0.1c0.1,0,0.3,0,0.5,0.1c10.6,2,21.9,5.1,29.6,7.5
		c3.7,1.1,7.4-0.7,8.9-4c0.5-1,0.7-2,0.7-3.2V504.9c0-3.1-0.7-6.2-2.2-8.9c5.4,6.8,11.8,15.4,18.5,25.6c22,33.4,33.4,63,44.7,92.6
		c14.8,39,11.1,37.7,24.2,69.7c16.3,39.5,27.2,53,42.5,112.1c9.1,35.2,16.6,51.9,24.5,68c7.4,15.1,20.1,36.3,41,58.8
		c40.5,28.3,39,28.1,52.3,36.1c46.3,28,86,42.2,117.7,51.6h0c1.9,0.4,3.7,0.9,5.3,1.6c0.6,0.2,1.1,0.4,1.7,0.7
		c6.2,2.8,13.3,2.9,19.5,0.1c0.1,0,0.1,0,0.2-0.1c3.2-1.4,6.9-2.6,11.1-2.7c16.7-4.4,40.8-11.9,63.3-23.2
		c43-21.8,81.3-44.5,112.3-64.2c0,0,0,0,0,0c11-12.3,27.2-32.8,40.6-58.6c14.9-28.8,20.4-52.2,24.5-68
		c21.7-84.1,34.7-75.7,66.7-181.7c8.1-26.8,16.5-58.2,39.3-96.5c4.5-7.5,9.2-14,13.5-19.5c-0.8,2.1-1.2,4.4-1.2,6.8v286.7
		c0,2.9,1.6,5.3,4,6.6c1.7,0.9,3.7,1.1,5.7,0.5c7.8-2.4,19.1-5.6,29.7-7.5c13.5-2.5,25.9-1.1,28-2.9c4.9-4,4.6-28.4,4.6-39.5
		c0-3.2,0-337,0-339.1v-0.2c0,0,0.9-20.8-4.6-32.7c-3.5-7.7-18.3-7.6-28.2-9.9c-6.3-1.4-11.7-10.8-13.1-17.1l-2.2-16.5
		c-2.6-19.6-9-38.5-18.8-55.7c-23.2-40.6-56.7-95.9-88-129.8c-17.4-18.9-85.2-65.6-118.5-87.1c-20.5-13.3-42.7-24.8-56.9-31.8
		c-10.6-5.2-21.8-9.4-33.3-12.3c-19.5-5-52.2-11.7-88.4-12.3c-36.2,0.6-68.9,7.4-88.4,12.3c-11.5,3-22.6,7.1-33.3,12.3
		c-14.2,7-36.4,18.6-56.9,31.8c-33.3,21.6-101.1,68.3-118.5,87.1c-31.3,34-64.8,89.2-88,129.8c-9.8,17.2-16.2,36.1-18.8,55.7
		l-2.2,16.5c-1.4,6-6.4,14.9-12.3,16.9c0.3,1.4,0.5,2.9,0.5,4.5v409.2C62.5,784.2,61.2,787.8,59.1,790.9z"/>
	
		<linearGradient id="SVGID_2_" gradientUnits="userSpaceOnUse" x1="276.3016" y1="195.5638" x2="217.7913" y2="142.201" gradientTransform="matrix(-1 0 0 -1 948.5637 1068.5673)">
		<stop  offset="0.2918" style="stop-color:#FFA71A"/>
		<stop  offset="0.4862" style="stop-color:#FCA51A"/>
		<stop  offset="0.6069" style="stop-color:#F49F18"/>
		<stop  offset="0.7076" style="stop-color:#E59515"/>
		<stop  offset="0.7972" style="stop-color:#D18612"/>
		<stop  offset="0.8795" style="stop-color:#B6730D"/>
		<stop  offset="0.9553" style="stop-color:#965C07"/>
		<stop  offset="1" style="stop-color:#7F4C03"/>
	</linearGradient>
	<path class="st1" d="M901.2,791c-11.7,0-50.7,34.4-65.9,44.3c-9.9,6.5-17.1,11.1-25.1,19.9l-125,138c-6.1,6.8-12.7,13.2-19.7,19.1
		c-48.1,41-69.6,65-89.8,63.4c15.1-25.9,51-84.8,91.7-126.3c7.3-7.4,24.4-24.2,45.5-43.2c13.7-12.3,24.8-23.3,34.2-31.6
		c22.5-16,45.7-32.7,82.2-55.5c13.6-8.5,25.5-15.6,34.8-21.1c1.7,0.9,3.7,1.1,5.7,0.5c7.8-2.4,19.1-5.6,29.7-7.5"/>
	
		<linearGradient id="SVGID_3_" gradientUnits="userSpaceOnUse" x1="570.3182" y1="252.2173" x2="719.3373" y2="137.185" gradientTransform="matrix(-1 0 0 -1 948.5637 1068.5673)">
		<stop  offset="0.684" style="stop-color:#FFA71A"/>
		<stop  offset="0.7313" style="stop-color:#FBA419"/>
		<stop  offset="0.7823" style="stop-color:#EE9B17"/>
		<stop  offset="0.835" style="stop-color:#D88D14"/>
		<stop  offset="0.8888" style="stop-color:#BA780F"/>
		<stop  offset="0.9436" style="stop-color:#935E08"/>
		<stop  offset="0.9984" style="stop-color:#653E00"/>
		<stop  offset="1" style="stop-color:#633D00"/>
	</linearGradient>
	<path class="st2" d="M60.4,791.1c0.1,0,0.3,0,0.5,0.1c10.6,2,21.9,5.1,29.6,7.5c3.7,1.1,7.4-0.7,8.9-4c10.4,6.2,21.8,13.2,34,20.8
		c32.2,20,59.9,38.5,90.8,59.5c9.7,8.1,21.6,18.9,35.5,31.3c21.1,19,38.2,35.7,45.5,43.2c40.7,41.6,75.3,98.1,90.4,124
		c-3.6,1.2-7.2,1.9-10.5,2.2c-20.4,1.9-41.8-22.2-90.2-63.4c-7-5.9-13.5-12.3-19.7-19.1l-125-138c-8-8.8-15.2-13.4-25.1-19.9
		C110.4,825.7,73.4,793.1,60.4,791.1z"/>
	
		<linearGradient id="SVGID_4_" gradientUnits="userSpaceOnUse" x1="648.0499" y1="176.9076" x2="517.3314" y2="22.6598" gradientTransform="matrix(-1 0 0 -1 948.5637 1068.5673)">
		<stop  offset="0.8162" style="stop-color:#FFA71A"/>
		<stop  offset="1" style="stop-color:#633D00"/>
	</linearGradient>
	<path class="st3" d="M224.2,875c14.6,9.9,29.8,20.4,46.5,32c8.8,6,16.2,11.2,22.6,15.7c40.5,28.3,39,28.1,52.3,36.1
		c46.3,28,86,42.2,117.7,51.6c-2.9-0.5-6.1-0.6-9.4,0c-1.8,0.3-6.9,1.4-11.3,5.3c-7.6,6.8-7.6,16.9-8.7,22.6
		c-3.1,15.4-21.2,29.6-38.3,35.1c-15.1-25.9-49.7-82.5-90.4-124c-7.3-7.4-24.4-24.2-45.5-43.2C245.8,893.9,233.9,883.2,224.2,875z"
		/>
	
		<linearGradient id="SVGID_5_" gradientUnits="userSpaceOnUse" x1="256.3882" y1="165.5723" x2="421.0935" y2="15.6817" gradientTransform="matrix(-1 0 0 -1 948.5637 1068.5673)">
		<stop  offset="0.8162" style="stop-color:#FFA71A"/>
		<stop  offset="1" style="stop-color:#633D00"/>
	</linearGradient>
	<path class="st4" d="M501.1,1010c16.7-4.4,40.8-11.9,63.3-23.2c43-21.8,81.3-44.5,112.3-64.2c0,0,0,0,0,0
		c23.4-14.9,42.5-28,56.3-37.7c4.7-3.3,9.4-6.6,14.1-10c-9.4,8.2-20.5,19.3-34.2,31.6c-21.1,19-38.2,35.7-45.5,43.2
		c-40.7,41.5-76.6,100.4-91.7,126.3c-0.1,0-0.2,0-0.4,0c-19.4-1.8-45.1-18.7-48.9-37.4c-1.1-5.7-1.1-15.9-8.7-22.6
		c-4.4-4-9.5-5-11.3-5.3C504.7,1010.1,502.9,1010,501.1,1010z"/>
	<path d="M932.1,746.1c0.1-112.1-0.1-224.5,0-336.7l12.1,16.4c7.5,10.1,11.9,22.4,11.9,35v249.3c0,13.2-9.7,20.7-17.4,28.7
		C935.8,741.8,933.5,744.4,932.1,746.1z"/>
	<path d="M28.3,746.1c-0.1-112.1,0.1-224.5,0-336.6l-12.1,16.3c-7.5,10.1-11.9,22.4-11.9,35v249.3c0,13.2,9.7,20.7,17.4,28.7
		C24.5,741.8,26.8,744.4,28.3,746.1z"/>
	<path d="M753,418c-1.2,2.1-4.4,1.6-5-0.7c-2.9-12-8.8-37.4-9.7-48.8c-1.3-15.3-14.8-139.4-9.6-143.4c5.2-3.9,23.1,2.6,35.3,17
		c8.3,9.8,20.8,29.1,28,40.4c3.6,5.6,4.5,12.5,2.7,18.9c-7.4,25.5-28.7,90.9-35,105.5L753,418z"/>
	<path d="M213.9,418c1.2,2.1,4.4,1.6,5-0.7c2.9-12,8.8-37.4,9.7-48.8c1.3-15.3,14.8-139.4,9.6-143.4c-5.2-3.9-23.1,2.6-35.3,17
		c-8.3,9.8-20.8,29.1-28,40.4c-3.6,5.6-4.5,12.5-2.7,18.9c7.4,25.5,28.7,90.9,35,105.5L213.9,418z"/>
	
		<linearGradient id="SVGID_6_" gradientUnits="userSpaceOnUse" x1="16.4943" y1="485.7542" x2="88.4039" y2="485.7542" gradientTransform="matrix(-1 0 0 -1 948.5637 1068.5673)">
		<stop  offset="0" style="stop-color:#FFA71A"/>
		<stop  offset="0.327" style="stop-color:#FDA51A"/>
		<stop  offset="0.4935" style="stop-color:#F5A018"/>
		<stop  offset="0.6238" style="stop-color:#E89616"/>
		<stop  offset="0.7353" style="stop-color:#D58912"/>
		<stop  offset="0.8348" style="stop-color:#BC780E"/>
		<stop  offset="0.9243" style="stop-color:#9F6209"/>
		<stop  offset="1" style="stop-color:#7F4C03"/>
	</linearGradient>
	<path class="st5" d="M860.2,791.6V504.9c0-2.3,0.4-4.6,1.2-6.8c0.9-2.6,2.4-5,4.4-7l6.4-6.5c0,0,0-0.1,0.1-0.1l18.7-19.1
		c4.4-4.5,6.9-10.5,6.9-16.8v-77.6c0-1.5,0.2-3,0.5-4.5c0.2,0.1,0.5,0.2,0.7,0.2c9.9,2.3,24.7,2.3,28.2,9.9c4.1,9,4.7,25.4,4.7,32.7
		v0.2c0,2.1,0,335.9,0,339.1c0,11.1,0.2,35.5-4.6,39.5c-2.1,1.8-14.5,0.4-28,2.9c-10.6,2-21.9,5.1-29.7,7.5c-2,0.6-4,0.3-5.7-0.5
		C861.8,796.9,860.2,794.5,860.2,791.6z"/>
	
		<linearGradient id="SVGID_7_" gradientUnits="userSpaceOnUse" x1="848.393" y1="485.7505" x2="920.3031" y2="485.7505" gradientTransform="matrix(-1 0 0 -1 948.5637 1068.5673)">
		<stop  offset="0.1427" style="stop-color:#7F4C03"/>
		<stop  offset="0.2075" style="stop-color:#9F6209"/>
		<stop  offset="0.2843" style="stop-color:#BC780E"/>
		<stop  offset="0.3696" style="stop-color:#D58912"/>
		<stop  offset="0.4652" style="stop-color:#E89616"/>
		<stop  offset="0.5769" style="stop-color:#F5A018"/>
		<stop  offset="0.7197" style="stop-color:#FDA51A"/>
		<stop  offset="1" style="stop-color:#FFA71A"/>
	</linearGradient>
	<path class="st6" d="M28.3,409.7c0-7.1,0.5-23.8,4.7-32.9c3.5-7.7,18.3-7.6,28.2-9.9c0.2,0,0.5-0.1,0.7-0.2
		c0.3,1.4,0.5,2.9,0.5,4.5v77.6c0,6.3,2.5,12.3,6.9,16.8l22.3,22.7l3,3c1.4,1.4,2.6,3.1,3.4,4.8c1.4,2.7,2.2,5.8,2.2,8.9v286.7
		c0,1.1-0.2,2.2-0.7,3.2c-1.5,3.2-5.2,5.1-8.9,4c-7.8-2.4-19.1-5.6-29.6-7.5c-0.1,0-0.3,0-0.5-0.1c-0.4-0.1-0.9-0.2-1.3-0.2
		c-12.9-2.1-24.2-0.9-26.3-2.6c-4.9-4-4.6-28.4-4.6-39.5C28.3,745.6,28.3,411.8,28.3,409.7z"/>
	
		<linearGradient id="SVGID_8_" gradientUnits="userSpaceOnUse" x1="84.449" y1="358.254" x2="271.7911" y2="358.254" gradientTransform="matrix(-1 0 0 -1 948.5637 1068.5673)">
		<stop  offset="0" style="stop-color:#633D00"/>
		<stop  offset="0.36" style="stop-color:#FFA71A"/>
	</linearGradient>
	<path class="st7" d="M676.8,922.5c11-12.3,27.2-32.8,40.6-58.6c14.9-28.8,20.4-52.2,24.5-68c21.7-84.1,34.7-75.7,66.7-181.7
		c8.1-26.8,16.5-58.2,39.3-96.5c4.5-7.5,9.2-14,13.5-19.5c-0.8,2.1-1.2,4.4-1.2,6.8v286.7c0,2.9,1.6,5.3,4,6.6
		c-9.3,5.5-21.2,12.6-34.8,21.1c-44,27.6-68.8,46.2-96.3,65.5C719.3,894.5,700.1,907.6,676.8,922.5z"/>
	
		<linearGradient id="SVGID_9_" gradientUnits="userSpaceOnUse" x1="655.1809" y1="359.1991" x2="850.5569" y2="359.1991" gradientTransform="matrix(-1 0 0 -1 948.5637 1068.5673)">
		<stop  offset="0.64" style="stop-color:#FFA71A"/>
		<stop  offset="1" style="stop-color:#633D00"/>
	</linearGradient>
	<path class="st8" d="M98,496c5.4,6.8,11.8,15.4,18.5,25.6c22,33.4,33.4,63,44.7,92.6c14.8,39,11.1,37.7,24.2,69.7
		c16.3,39.5,27.2,53,42.5,112.1c9.1,35.2,16.6,51.9,24.5,68c7.4,15.1,20.1,36.3,41,58.8c-6.4-4.5-13.9-9.7-22.6-15.7
		c-52.2-36-89.8-62-137.3-91.5c-12.2-7.6-23.7-14.6-34-20.8c0.5-1,0.7-2,0.7-3.2V504.9C100.2,501.8,99.4,498.7,98,496z"/>
</g>
</svg>
